# xmcd CD database file generated by OrangeCD 5.2
#
# Track frame offsets:
#	150
#	8320
#	17941
#	26475
#	37466
#	49797
#	61232
#	74558
#	84761
#	96416
#	112749
#	121779
#	131202
#	144202
#	151247
#	163081
#	174288
#	187878
#
# Disc length: 2633 seconds
#
# Revision: 0
# Processed by: cddbd v1.5.1PL0 Copyright (c) Steve Scherf et al.
# Submitted via: OrangeCD 5.2
#
DISCID=e10a4712
DTITLE=Tennessee Rhythm Riders - Step It Up And Go!
DYEAR=1997
DGENRE=Country
TTITLE0=That's The Way It's Gonna Be
TTITLE1=Rockaway Rock
TTITLE2=Hilbilly Baby
TTITLE3=Little Red Caboose
TTITLE4=You Won't Believe This
TTITLE5=Step It Up And Go
TTITLE6=Truck Drivers Rock
TTITLE7=Woman In Town
TTITLE8=Hot Rod Girl
TTITLE9=Tennessee Special
TTITLE10=Kiss Me Quick And Go
TTITLE11=Good Gosh Gal
TTITLE12=Kawliga
TTITLE13=Ranch Hand Boogie
TTITLE14=Road Of Sadness
TTITLE15=Pistol Boogie
TTITLE16=When Your House Is Not Your Home
TTITLE17=Juke Box Boogie
EXTD=
EXTT0=
EXTT1=
EXTT2=
EXTT3=
EXTT4=
EXTT5=
EXTT6=
EXTT7=
EXTT8=
EXTT9=
EXTT10=
EXTT11=
EXTT12=
EXTT13=
EXTT14=
EXTT15=
EXTT16=
EXTT17=
PLAYORDER=
